# xmcd
#
# Track frame offsets:
#	150
#	19964
#	40704
#	61243
#	81465
#	105642
#	127250
#	138030
#	152613
#	164843
#	174404
#	187804
#	204264
#
# Disc length: 2850 seconds
#
# Revision: 0
# Processed by: cddbd v1.4PL0 Copyright (c) Steve Scherf et al.
# Submitted via: dBpowerAMP V4.0
#
DISCID=aa0b200d
DTITLE=Various Artist - Fantasy Soul Blues
DYEAR=1900
DGENRE=Blues
TTITLE0=I Can See Clearly Now
TTITLE1=Midnight Train To Georgia
TTITLE2=The Way We Were
TTITLE3=Can't Get Enough Of Your Love
TTITLE4=Standing In The Shadows Of Love
TTITLE5=Never Gonna Give You Up
TTITLE6=Respect
TTITLE7=Do Right Woman Do Right Man
TTITLE8=Natural Woman
TTITLE9=I'm Busted
TTITLE10=Eleanor Rigby
TTITLE11=Georgia
TTITLE12=California Here I Come
EXTD=CEG
EXTT0=
EXTT1=
EXTT2=
EXTT3=
EXTT4=
EXTT5=
EXTT6=
EXTT7=
EXTT8=
EXTT9=
EXTT10=
EXTT11=
EXTT12=
PLAYORDER=
